<mxfile host="app.diagrams.net" agent="Mozilla/5.0 (Macintosh; Intel Mac OS X 10_15_7) AppleWebKit/537.36 (KHTML, like Gecko) Chrome/134.0.0.0 Safari/537.36" version="26.2.6">
  <diagram name="Modelo ER Completo" id="0">
    <mxGraphModel dx="62050" dy="38948" grid="1" gridSize="10" guides="1" tooltips="1" connect="1" arrows="1" fold="1" page="1" pageScale="1" pageWidth="850" pageHeight="1100" math="0" shadow="0">
      <root>
        <mxCell id="0" />
        <mxCell id="1" parent="0" />
        <mxCell id="usuario" value="&lt;table border=&quot;1&quot; cellspacing=&quot;0&quot;&gt;&lt;tr&gt;&lt;td colspan=&quot;2&quot; bgcolor=&quot;#1E2A47&quot; align=&quot;center&quot;&gt;&lt;font color=&quot;white&quot;&gt;&lt;b&gt;USUARIO&lt;/b&gt;&lt;/font&gt;&lt;/td&gt;&lt;/tr&gt;&lt;tr&gt;&lt;td&gt;usuario_id&lt;/td&gt;&lt;td&gt;PK&lt;/td&gt;&lt;/tr&gt;&lt;tr&gt;&lt;td&gt;email&lt;/td&gt;&lt;td&gt;VARCHAR(255)&lt;/td&gt;&lt;/tr&gt;&lt;tr&gt;&lt;td&gt;password_hash&lt;/td&gt;&lt;td&gt;VARCHAR(255)&lt;/td&gt;&lt;/tr&gt;&lt;tr&gt;&lt;td&gt;nombre&lt;/td&gt;&lt;td&gt;VARCHAR(100)&lt;/td&gt;&lt;/tr&gt;&lt;tr&gt;&lt;td&gt;apellido&lt;/td&gt;&lt;td&gt;VARCHAR(100)&lt;/td&gt;&lt;/tr&gt;&lt;tr&gt;&lt;td&gt;avatar_url&lt;/td&gt;&lt;td&gt;VARCHAR(255)&lt;/td&gt;&lt;/tr&gt;&lt;tr&gt;&lt;td&gt;biografia&lt;/td&gt;&lt;td&gt;TEXT&lt;/td&gt;&lt;/tr&gt;&lt;tr&gt;&lt;td&gt;fecha_registro&lt;/td&gt;&lt;td&gt;TIMESTAMP&lt;/td&gt;&lt;/tr&gt;&lt;tr&gt;&lt;td&gt;ultimo_acceso&lt;/td&gt;&lt;td&gt;TIMESTAMP&lt;/td&gt;&lt;/tr&gt;&lt;tr&gt;&lt;td&gt;estado&lt;/td&gt;&lt;td&gt;VARCHAR(20)&lt;/td&gt;&lt;/tr&gt;&lt;/table&gt;" style="shape=table;whiteSpace=wrap;html=1;width=200;height=300;" parent="1" vertex="1">
          <mxGeometry x="-150" y="-240" width="200" height="210" as="geometry" />
        </mxCell>
        <mxCell id="rol" value="&lt;table border=&quot;1&quot; cellspacing=&quot;0&quot;&gt;&lt;tr&gt;&lt;td colspan=&quot;2&quot; bgcolor=&quot;#1E2A47&quot; align=&quot;center&quot;&gt;&lt;font color=&quot;white&quot;&gt;&lt;b&gt;ROL&lt;/b&gt;&lt;/font&gt;&lt;/td&gt;&lt;/tr&gt;&lt;tr&gt;&lt;td&gt;rol_id&lt;/td&gt;&lt;td&gt;PK&lt;/td&gt;&lt;/tr&gt;&lt;tr&gt;&lt;td&gt;nombre&lt;/td&gt;&lt;td&gt;VARCHAR(50)&lt;/td&gt;&lt;/tr&gt;&lt;tr&gt;&lt;td&gt;descripcion&lt;/td&gt;&lt;td&gt;TEXT&lt;/td&gt;&lt;/tr&gt;&lt;tr&gt;&lt;td&gt;nivel_prioridad&lt;/td&gt;&lt;td&gt;INT&lt;/td&gt;&lt;/tr&gt;&lt;/table&gt;" style="shape=table;whiteSpace=wrap;html=1;width=200;height=160;" parent="1" vertex="1">
          <mxGeometry x="225" y="-290" width="200" height="160" as="geometry" />
        </mxCell>
        <mxCell id="permiso" value="&lt;table border=&quot;1&quot; cellspacing=&quot;0&quot;&gt;&lt;tr&gt;&lt;td colspan=&quot;2&quot; bgcolor=&quot;#1E2A47&quot; align=&quot;center&quot;&gt;&lt;font color=&quot;white&quot;&gt;&lt;b&gt;PERMISO&lt;/b&gt;&lt;/font&gt;&lt;/td&gt;&lt;/tr&gt;&lt;tr&gt;&lt;td&gt;permiso_id&lt;/td&gt;&lt;td&gt;PK&lt;/td&gt;&lt;/tr&gt;&lt;tr&gt;&lt;td&gt;codigo&lt;/td&gt;&lt;td&gt;VARCHAR(100)&lt;/td&gt;&lt;/tr&gt;&lt;tr&gt;&lt;td&gt;nombre&lt;/td&gt;&lt;td&gt;VARCHAR(100)&lt;/td&gt;&lt;/tr&gt;&lt;tr&gt;&lt;td&gt;descripcion&lt;/td&gt;&lt;td&gt;TEXT&lt;/td&gt;&lt;/tr&gt;&lt;/table&gt;" style="shape=table;whiteSpace=wrap;html=1;width=200;height=" parent="1" vertex="1">
          <mxGeometry x="650" y="-300" width="200" height="160" as="geometry" />
        </mxCell>
        <mxCell id="usuario_rol" value="&lt;table border=&quot;1&quot; cellspacing=&quot;0&quot;&gt;&lt;tr&gt;&lt;td colspan=&quot;2&quot; bgcolor=&quot;#A2B9D6&quot; align=&quot;center&quot;&gt;&lt;b&gt;USUARIO_ROL&lt;/b&gt;&lt;/td&gt;&lt;/tr&gt;&lt;tr&gt;&lt;td&gt;usuario_id&lt;/td&gt;&lt;td&gt;FK → USUARIO&lt;/td&gt;&lt;/tr&gt;&lt;tr&gt;&lt;td&gt;rol_id&lt;/td&gt;&lt;td&gt;FK → ROL&lt;/td&gt;&lt;/tr&gt;&lt;tr&gt;&lt;td&gt;fecha_asignacion&lt;/td&gt;&lt;td&gt;TIMESTAMP&lt;/td&gt;&lt;/tr&gt;&lt;/table&gt;" style="shape=table;whiteSpace=wrap;html=1;width=200;height=" parent="1" vertex="1">
          <mxGeometry x="110" y="-60" width="200" height="120" as="geometry" />
        </mxCell>
        <mxCell id="rol_permiso" value="&lt;table border=&quot;1&quot; cellspacing=&quot;0&quot;&gt;&lt;tr&gt;&lt;td colspan=&quot;2&quot; bgcolor=&quot;#A2B9D6&quot; align=&quot;center&quot;&gt;&lt;b&gt;ROL_PERMISO&lt;/b&gt;&lt;/td&gt;&lt;/tr&gt;&lt;tr&gt;&lt;td&gt;rol_id&lt;/td&gt;&lt;td&gt;FK → ROL&lt;/td&gt;&lt;/tr&gt;&lt;tr&gt;&lt;td&gt;permiso_id&lt;/td&gt;&lt;td&gt;FK → PERMISO&lt;/td&gt;&lt;/tr&gt;&lt;/table&gt;" style="shape=table;whiteSpace=wrap;html=1;width=200;height=" parent="1" vertex="1">
          <mxGeometry x="460" y="-50" width="200" height="100" as="geometry" />
        </mxCell>
        <mxCell id="articulo" value="&lt;table border=&quot;1&quot; cellspacing=&quot;0&quot;&gt;&lt;tr&gt;&lt;td colspan=&quot;2&quot; bgcolor=&quot;#1E2A47&quot; align=&quot;center&quot;&gt;&lt;font color=&quot;white&quot;&gt;&lt;b&gt;ARTÍCULO&lt;/b&gt;&lt;/font&gt;&lt;/td&gt;&lt;/tr&gt;&lt;tr&gt;&lt;td&gt;articulo_id&lt;/td&gt;&lt;td&gt;PK&lt;/td&gt;&lt;/tr&gt;&lt;tr&gt;&lt;td&gt;titulo&lt;/td&gt;&lt;td&gt;VARCHAR(255)&lt;/td&gt;&lt;/tr&gt;&lt;tr&gt;&lt;td&gt;subtitulo&lt;/td&gt;&lt;td&gt;VARCHAR(255)&lt;/td&gt;&lt;/tr&gt;&lt;tr&gt;&lt;td&gt;contenido&lt;/td&gt;&lt;td&gt;TEXT&lt;/td&gt;&lt;/tr&gt;&lt;tr&gt;&lt;td&gt;resumen&lt;/td&gt;&lt;td&gt;TEXT&lt;/td&gt;&lt;/tr&gt;&lt;tr&gt;&lt;td&gt;slug&lt;/td&gt;&lt;td&gt;VARCHAR(255)&lt;/td&gt;&lt;/tr&gt;&lt;tr&gt;&lt;td&gt;fecha_publicacion&lt;/td&gt;&lt;td&gt;TIMESTAMP&lt;/td&gt;&lt;/tr&gt;&lt;tr&gt;&lt;td&gt;fecha_actualizacion&lt;/td&gt;&lt;td&gt;TIMESTAMP&lt;/td&gt;&lt;/tr&gt;&lt;tr&gt;&lt;td&gt;tiempo_lectura&lt;/td&gt;&lt;td&gt;INT&lt;/td&gt;&lt;/tr&gt;&lt;tr&gt;&lt;td&gt;estado&lt;/td&gt;&lt;td&gt;VARCHAR(20)&lt;/td&gt;&lt;/tr&gt;&lt;tr&gt;&lt;td&gt;imagen_portada_url&lt;/td&gt;&lt;td&gt;VARCHAR(255)&lt;/td&gt;&lt;/tr&gt;&lt;tr&gt;&lt;td&gt;visitas&lt;/td&gt;&lt;td&gt;INT&lt;/td&gt;&lt;/tr&gt;&lt;tr&gt;&lt;td&gt;destacado&lt;/td&gt;&lt;td&gt;BOOLEAN&lt;/td&gt;&lt;/tr&gt;&lt;tr&gt;&lt;td&gt;autor_id&lt;/td&gt;&lt;td&gt;FK → USUARIO&lt;/td&gt;&lt;/tr&gt;&lt;tr&gt;&lt;td&gt;created_at&lt;/td&gt;&lt;td&gt;TIMESTAMP&lt;/td&gt;&lt;/tr&gt;&lt;tr&gt;&lt;td&gt;updated_at&lt;/td&gt;&lt;td&gt;TIMESTAMP&lt;/td&gt;&lt;/tr&gt;&lt;/table&gt;" style="shape=table;whiteSpace=wrap;html=1;width=200;height=400;" parent="1" vertex="1">
          <mxGeometry x="100" y="500" width="200" height="400" as="geometry" />
        </mxCell>
        <mxCell id="categoria" value="&lt;table border=&quot;1&quot; cellspacing=&quot;0&quot;&gt;&lt;tr&gt;&lt;td colspan=&quot;2&quot; bgcolor=&quot;#1E2A47&quot; align=&quot;center&quot;&gt;&lt;font color=&quot;white&quot;&gt;&lt;b&gt;CATEGORÍA&lt;/b&gt;&lt;/font&gt;&lt;/td&gt;&lt;/tr&gt;&lt;tr&gt;&lt;td&gt;categoria_id&lt;/td&gt;&lt;td&gt;PK&lt;/td&gt;&lt;/tr&gt;&lt;tr&gt;&lt;td&gt;nombre&lt;/td&gt;&lt;td&gt;VARCHAR(100)&lt;/td&gt;&lt;/tr&gt;&lt;tr&gt;&lt;td&gt;slug&lt;/td&gt;&lt;td&gt;VARCHAR(100)&lt;/td&gt;&lt;/tr&gt;&lt;tr&gt;&lt;td&gt;descripcion&lt;/td&gt;&lt;td&gt;TEXT&lt;/td&gt;&lt;/tr&gt;&lt;tr&gt;&lt;td&gt;icono&lt;/td&gt;&lt;td&gt;VARCHAR(50)&lt;/td&gt;&lt;/tr&gt;&lt;tr&gt;&lt;td&gt;color&lt;/td&gt;&lt;td&gt;VARCHAR(20)&lt;/td&gt;&lt;/tr&gt;&lt;tr&gt;&lt;td&gt;parent_id&lt;/td&gt;&lt;td&gt;FK → CATEGORÍA&lt;/td&gt;&lt;/tr&gt;&lt;tr&gt;&lt;td&gt;orden&lt;/td&gt;&lt;td&gt;INT&lt;/td&gt;&lt;/tr&gt;&lt;/table&gt;" style="shape=table;whiteSpace=wrap;html=1;width=200;height=240;" parent="1" vertex="1">
          <mxGeometry x="400" y="500" width="200" height="240" as="geometry" />
        </mxCell>
        <mxCell id="etiqueta" value="&lt;table border=&quot;1&quot; cellspacing=&quot;0&quot;&gt;&lt;tr&gt;&lt;td colspan=&quot;2&quot; bgcolor=&quot;#1E2A47&quot; align=&quot;center&quot;&gt;&lt;font color=&quot;white&quot;&gt;&lt;b&gt;ETIQUETA&lt;/b&gt;&lt;/font&gt;&lt;/td&gt;&lt;/tr&gt;&lt;tr&gt;&lt;td&gt;etiqueta_id&lt;/td&gt;&lt;td&gt;PK&lt;/td&gt;&lt;/tr&gt;&lt;tr&gt;&lt;td&gt;nombre&lt;/td&gt;&lt;td&gt;VARCHAR(100)&lt;/td&gt;&lt;/tr&gt;&lt;tr&gt;&lt;td&gt;slug&lt;/td&gt;&lt;td&gt;VARCHAR(100)&lt;/td&gt;&lt;/tr&gt;&lt;tr&gt;&lt;td&gt;descripcion&lt;/td&gt;&lt;td&gt;TEXT&lt;/td&gt;&lt;/tr&gt;&lt;tr&gt;&lt;td&gt;tipo&lt;/td&gt;&lt;td&gt;VARCHAR(50)&lt;/td&gt;&lt;/tr&gt;&lt;/table&gt;" style="shape=table;whiteSpace=wrap;html=1;width=200;height=180;" parent="1" vertex="1">
          <mxGeometry x="700" y="500" width="200" height="180" as="geometry" />
        </mxCell>
        <mxCell id="articulo_categoria" value="&lt;table border=&quot;1&quot; cellspacing=&quot;0&quot;&gt;&lt;tr&gt;&lt;td colspan=&quot;2&quot; bgcolor=&quot;#A2B9D6&quot; align=&quot;center&quot;&gt;&lt;b&gt;ARTÍCULO_CATEGORÍA&lt;/b&gt;&lt;/td&gt;&lt;/tr&gt;&lt;tr&gt;&lt;td&gt;articulo_id&lt;/td&gt;&lt;td&gt;FK → ARTÍCULO&lt;/td&gt;&lt;/tr&gt;&lt;tr&gt;&lt;td&gt;categoria_id&lt;/td&gt;&lt;td&gt;FK → CATEGORÍA&lt;/td&gt;&lt;/tr&gt;&lt;tr&gt;&lt;td&gt;es_principal&lt;/td&gt;&lt;td&gt;BOOLEAN&lt;/td&gt;&lt;/tr&gt;&lt;tr&gt;&lt;td&gt;orden&lt;/td&gt;&lt;td&gt;INT&lt;/td&gt;&lt;/tr&gt;&lt;tr&gt;&lt;td&gt;fecha_asociacion&lt;/td&gt;&lt;td&gt;TIMESTAMP&lt;/td&gt;&lt;/tr&gt;&lt;/table&gt;" style="shape=table;whiteSpace=wrap;html=1;width=200;height=180;" parent="1" vertex="1">
          <mxGeometry x="250" y="600" width="200" height="180" as="geometry" />
        </mxCell>
        <mxCell id="articulo_etiqueta" value="&lt;table border=&quot;1&quot; cellspacing=&quot;0&quot;&gt;&lt;tr&gt;&lt;td colspan=&quot;2&quot; bgcolor=&quot;#A2B9D6&quot; align=&quot;center&quot;&gt;&lt;b&gt;ARTÍCULO_ETIQUETA&lt;/b&gt;&lt;/td&gt;&lt;/tr&gt;&lt;tr&gt;&lt;td&gt;articulo_id&lt;/td&gt;&lt;td&gt;FK → ARTÍCULO&lt;/td&gt;&lt;/tr&gt;&lt;tr&gt;&lt;td&gt;etiqueta_id&lt;/td&gt;&lt;td&gt;FK → ETIQUETA&lt;/td&gt;&lt;/tr&gt;&lt;tr&gt;&lt;td&gt;relevancia&lt;/td&gt;&lt;td&gt;FLOAT&lt;/td&gt;&lt;/tr&gt;&lt;tr&gt;&lt;td&gt;fecha_asociacion&lt;/td&gt;&lt;td&gt;TIMESTAMP&lt;/td&gt;&lt;/tr&gt;&lt;/table&gt;" style="shape=table;whiteSpace=wrap;html=1;width=200;height=160;" parent="1" vertex="1">
          <mxGeometry x="550" y="600" width="200" height="160" as="geometry" />
        </mxCell>
        <mxCell id="comentario" value="&lt;table border=&quot;1&quot; cellspacing=&quot;0&quot;&gt;&lt;tr&gt;&lt;td colspan=&quot;2&quot; bgcolor=&quot;#1E2A47&quot; align=&quot;center&quot;&gt;&lt;font color=&quot;white&quot;&gt;&lt;b&gt;COMENTARIO&lt;/b&gt;&lt;/font&gt;&lt;/td&gt;&lt;/tr&gt;&lt;tr&gt;&lt;td&gt;comentario_id&lt;/td&gt;&lt;td&gt;PK&lt;/td&gt;&lt;/tr&gt;&lt;tr&gt;&lt;td&gt;articulo_id&lt;/td&gt;&lt;td&gt;FK → ARTÍCULO&lt;/td&gt;&lt;/tr&gt;&lt;tr&gt;&lt;td&gt;usuario_id&lt;/td&gt;&lt;td&gt;FK → USUARIO&lt;/td&gt;&lt;/tr&gt;&lt;tr&gt;&lt;td&gt;contenido&lt;/td&gt;&lt;td&gt;TEXT&lt;/td&gt;&lt;/tr&gt;&lt;tr&gt;&lt;td&gt;fecha&lt;/td&gt;&lt;td&gt;TIMESTAMP&lt;/td&gt;&lt;/tr&gt;&lt;tr&gt;&lt;td&gt;estado&lt;/td&gt;&lt;td&gt;VARCHAR(20)&lt;/td&gt;&lt;/tr&gt;&lt;tr&gt;&lt;td&gt;parent_id&lt;/td&gt;&lt;td&gt;FK → COMENTARIO&lt;/td&gt;&lt;/tr&gt;&lt;/table&gt;" style="shape=table;whiteSpace=wrap;html=1;width=200;height=220;" parent="1" vertex="1">
          <mxGeometry x="100" y="900" width="200" height="220" as="geometry" />
        </mxCell>
        <mxCell id="adjunto" value="&lt;table border=&quot;1&quot; cellspacing=&quot;0&quot;&gt;&lt;tr&gt;&lt;td colspan=&quot;2&quot; bgcolor=&quot;#1E2A47&quot; align=&quot;center&quot;&gt;&lt;font color=&quot;white&quot;&gt;&lt;b&gt;ADJUNTO&lt;/b&gt;&lt;/font&gt;&lt;/td&gt;&lt;/tr&gt;&lt;tr&gt;&lt;td&gt;adjunto_id&lt;/td&gt;&lt;td&gt;PK&lt;/td&gt;&lt;/tr&gt;&lt;tr&gt;&lt;td&gt;articulo_id&lt;/td&gt;&lt;td&gt;FK → ARTÍCULO&lt;/td&gt;&lt;/tr&gt;&lt;tr&gt;&lt;td&gt;url&lt;/td&gt;&lt;td&gt;VARCHAR(255)&lt;/td&gt;&lt;/tr&gt;&lt;tr&gt;&lt;td&gt;tipo&lt;/td&gt;&lt;td&gt;VARCHAR(50)&lt;/td&gt;&lt;/tr&gt;&lt;tr&gt;&lt;td&gt;descripcion&lt;/td&gt;&lt;td&gt;TEXT&lt;/td&gt;&lt;/tr&gt;&lt;tr&gt;&lt;td&gt;orden&lt;/td&gt;&lt;td&gt;INT&lt;/td&gt;&lt;/tr&gt;&lt;tr&gt;&lt;td&gt;fecha_subida&lt;/td&gt;&lt;td&gt;TIMESTAMP&lt;/td&gt;&lt;/tr&gt;&lt;/table&gt;" style="shape=table;whiteSpace=wrap;html=1;width=200;height=220;" parent="1" vertex="1">
          <mxGeometry x="400" y="900" width="200" height="220" as="geometry" />
        </mxCell>
        <mxCell id="version_articulo" value="&lt;table border=&quot;1&quot; cellspacing=&quot;0&quot;&gt;&lt;tr&gt;&lt;td colspan=&quot;2&quot; bgcolor=&quot;#1E2A47&quot; align=&quot;center&quot;&gt;&lt;font color=&quot;white&quot;&gt;&lt;b&gt;VERSION_ARTICULO&lt;/b&gt;&lt;/font&gt;&lt;/td&gt;&lt;/tr&gt;&lt;tr&gt;&lt;td&gt;version_id&lt;/td&gt;&lt;td&gt;PK&lt;/td&gt;&lt;/tr&gt;&lt;tr&gt;&lt;td&gt;articulo_id&lt;/td&gt;&lt;td&gt;FK → ARTÍCULO&lt;/td&gt;&lt;/tr&gt;&lt;tr&gt;&lt;td&gt;contenido&lt;/td&gt;&lt;td&gt;TEXT&lt;/td&gt;&lt;/tr&gt;&lt;tr&gt;&lt;td&gt;fecha_version&lt;/td&gt;&lt;td&gt;TIMESTAMP&lt;/td&gt;&lt;/tr&gt;&lt;tr&gt;&lt;td&gt;usuario_id&lt;/td&gt;&lt;td&gt;FK → USUARIO&lt;/td&gt;&lt;/tr&gt;&lt;tr&gt;&lt;td&gt;motivo_cambio&lt;/td&gt;&lt;td&gt;VARCHAR(255)&lt;/td&gt;&lt;/tr&gt;&lt;/table&gt;" style="shape=table;whiteSpace=wrap;html=1;width=200;height=200;" parent="1" vertex="1">
          <mxGeometry x="700" y="900" width="200" height="200" as="geometry" />
        </mxCell>
        <mxCell id="articulo_relacionado" value="&lt;table border=&quot;1&quot; cellspacing=&quot;0&quot;&gt;&lt;tr&gt;&lt;td colspan=&quot;2&quot; bgcolor=&quot;#A2B9D6&quot; align=&quot;center&quot;&gt;&lt;b&gt;ARTICULO_RELACIONADO&lt;/b&gt;&lt;/td&gt;&lt;/tr&gt;&lt;tr&gt;&lt;td&gt;articulo_origen_id&lt;/td&gt;&lt;td&gt;FK → ARTÍCULO&lt;/td&gt;&lt;/tr&gt;&lt;tr&gt;&lt;td&gt;articulo_destino_id&lt;/td&gt;&lt;td&gt;FK → ARTÍCULO&lt;/td&gt;&lt;/tr&gt;&lt;tr&gt;&lt;td&gt;tipo_relacion&lt;/td&gt;&lt;td&gt;VARCHAR(50)&lt;/td&gt;&lt;/tr&gt;&lt;tr&gt;&lt;td&gt;orden&lt;/td&gt;&lt;td&gt;INT&lt;/td&gt;&lt;/tr&gt;&lt;/table&gt;" style="shape=table;whiteSpace=wrap;html=1;width=200;height=160;" parent="1" vertex="1">
          <mxGeometry x="100" y="1200" width="200" height="160" as="geometry" />
        </mxCell>
        <mxCell id="metadato_seo" value="&lt;table border=&quot;1&quot; cellspacing=&quot;0&quot;&gt;&lt;tr&gt;&lt;td colspan=&quot;2&quot; bgcolor=&quot;#1E2A47&quot; align=&quot;center&quot;&gt;&lt;font color=&quot;white&quot;&gt;&lt;b&gt;METADATO_SEO&lt;/b&gt;&lt;/font&gt;&lt;/td&gt;&lt;/tr&gt;&lt;tr&gt;&lt;td&gt;articulo_id&lt;/td&gt;&lt;td&gt;PK, FK → ARTÍCULO&lt;/td&gt;&lt;/tr&gt;&lt;tr&gt;&lt;td&gt;meta_titulo&lt;/td&gt;&lt;td&gt;VARCHAR(255)&lt;/td&gt;&lt;/tr&gt;&lt;tr&gt;&lt;td&gt;meta_descripcion&lt;/td&gt;&lt;td&gt;VARCHAR(255)&lt;/td&gt;&lt;/tr&gt;&lt;tr&gt;&lt;td&gt;palabras_clave&lt;/td&gt;&lt;td&gt;TEXT&lt;/td&gt;&lt;/tr&gt;&lt;tr&gt;&lt;td&gt;schema_markup&lt;/td&gt;&lt;td&gt;TEXT&lt;/td&gt;&lt;/tr&gt;&lt;tr&gt;&lt;td&gt;og_image&lt;/td&gt;&lt;td&gt;VARCHAR(255)&lt;/td&gt;&lt;/tr&gt;&lt;/table&gt;" style="shape=table;whiteSpace=wrap;html=1;width=200;height=200;" parent="1" vertex="1">
          <mxGeometry x="400" y="1200" width="200" height="200" as="geometry" />
        </mxCell>
        <mxCell id="voto_articulo" value="&lt;table border=&quot;1&quot; cellspacing=&quot;0&quot;&gt;&lt;tr&gt;&lt;td colspan=&quot;2&quot; bgcolor=&quot;#A2B9D6&quot; align=&quot;center&quot;&gt;&lt;b&gt;VOTO_ARTICULO&lt;/b&gt;&lt;/td&gt;&lt;/tr&gt;&lt;tr&gt;&lt;td&gt;usuario_id&lt;/td&gt;&lt;td&gt;FK → USUARIO&lt;/td&gt;&lt;/tr&gt;&lt;tr&gt;&lt;td&gt;articulo_id&lt;/td&gt;&lt;td&gt;FK → ARTÍCULO&lt;/td&gt;&lt;/tr&gt;&lt;tr&gt;&lt;td&gt;puntuacion&lt;/td&gt;&lt;td&gt;INT&lt;/td&gt;&lt;/tr&gt;&lt;tr&gt;&lt;td&gt;fecha&lt;/td&gt;&lt;td&gt;TIMESTAMP&lt;/td&gt;&lt;/tr&gt;&lt;/table&gt;" style="shape=table;whiteSpace=wrap;html=1;width=200;height=160;" parent="1" vertex="1">
          <mxGeometry x="700" y="1200" width="200" height="160" as="geometry" />
        </mxCell>
        <mxCell id="historial_lectura" value="&lt;table border=&quot;1&quot; cellspacing=&quot;0&quot;&gt;&lt;tr&gt;&lt;td colspan=&quot;2&quot; bgcolor=&quot;#A2B9D6&quot; align=&quot;center&quot;&gt;&lt;b&gt;HISTORIAL_LECTURA&lt;/b&gt;&lt;/td&gt;&lt;/tr&gt;&lt;tr&gt;&lt;td&gt;usuario_id&lt;/td&gt;&lt;td&gt;FK → USUARIO&lt;/td&gt;&lt;/tr&gt;&lt;tr&gt;&lt;td&gt;articulo_id&lt;/td&gt;&lt;td&gt;FK → ARTÍCULO&lt;/td&gt;&lt;/tr&gt;&lt;tr&gt;&lt;td&gt;fecha_acceso&lt;/td&gt;&lt;td&gt;TIMESTAMP&lt;/td&gt;&lt;/tr&gt;&lt;tr&gt;&lt;td&gt;tiempo_lectura&lt;/td&gt;&lt;td&gt;INT&lt;/td&gt;&lt;/tr&gt;&lt;tr&gt;&lt;td&gt;completado&lt;/td&gt;&lt;td&gt;BOOLEAN&lt;/td&gt;&lt;/tr&gt;&lt;/table&gt;" style="shape=table;whiteSpace=wrap;html=1;width=200;height=180;" parent="1" vertex="1">
          <mxGeometry x="100" y="1400" width="200" height="180" as="geometry" />
        </mxCell>
        <mxCell id="newsletter" value="&lt;table border=&quot;1&quot; cellspacing=&quot;0&quot;&gt;&lt;tr&gt;&lt;td colspan=&quot;2&quot; bgcolor=&quot;#1E2A47&quot; align=&quot;center&quot;&gt;&lt;font color=&quot;white&quot;&gt;&lt;b&gt;NEWSLETTER&lt;/b&gt;&lt;/font&gt;&lt;/td&gt;&lt;/tr&gt;&lt;tr&gt;&lt;td&gt;email&lt;/td&gt;&lt;td&gt;PK&lt;/td&gt;&lt;/tr&gt;&lt;tr&gt;&lt;td&gt;nombre&lt;/td&gt;&lt;td&gt;VARCHAR(100)&lt;/td&gt;&lt;/tr&gt;&lt;tr&gt;&lt;td&gt;fecha_subscripcion&lt;/td&gt;&lt;td&gt;TIMESTAMP&lt;/td&gt;&lt;/tr&gt;&lt;tr&gt;&lt;td&gt;token_confirmacion&lt;/td&gt;&lt;td&gt;VARCHAR(100)&lt;/td&gt;&lt;/tr&gt;&lt;tr&gt;&lt;td&gt;confirmado&lt;/td&gt;&lt;td&gt;BOOLEAN&lt;/td&gt;&lt;/tr&gt;&lt;tr&gt;&lt;td&gt;preferencias&lt;/td&gt;&lt;td&gt;JSONB&lt;/td&gt;&lt;/tr&gt;&lt;/table&gt;" style="shape=table;whiteSpace=wrap;html=1;width=200;height=200;" parent="1" vertex="1">
          <mxGeometry x="400" y="1400" width="200" height="200" as="geometry" />
        </mxCell>
        <mxCell id="rel1" style="edgeStyle=none;endArrow=none;dashed=1;" parent="1" source="usuario" target="usuario_rol" edge="1" />
        <mxCell id="rel2" style="edgeStyle=none;endArrow=none;dashed=1;" parent="1" source="rol" target="usuario_rol" edge="1" />
        <mxCell id="rel3" style="edgeStyle=none;endArrow=none;dashed=1;" parent="1" source="rol" target="rol_permiso" edge="1" />
        <mxCell id="rel4" style="edgeStyle=none;endArrow=none;dashed=1;" parent="1" source="permiso" target="rol_permiso" edge="1" />
        <mxCell id="rel5" style="edgeStyle=none;endArrow=open;" parent="1" source="usuario" target="articulo" edge="1" />
        <mxCell id="rel6" style="edgeStyle=none;endArrow=none;dashed=1;" parent="1" source="articulo" target="articulo_categoria" edge="1" />
        <mxCell id="rel7" style="edgeStyle=none;endArrow=none;dashed=1;" parent="1" source="categoria" target="articulo_categoria" edge="1" />
        <mxCell id="rel8" style="edgeStyle=none;endArrow=none;dashed=1;" parent="1" source="articulo" target="articulo_etiqueta" edge="1" />
        <mxCell id="rel9" style="edgeStyle=none;endArrow=none;dashed=1;" parent="1" source="etiqueta" target="articulo_etiqueta" edge="1" />
        <mxCell id="rel10" style="edgeStyle=none;endArrow=open;" parent="1" source="articulo" target="comentario" edge="1" />
        <mxCell id="rel11" style="edgeStyle=none;endArrow=open;" parent="1" source="usuario" target="comentario" edge="1" />
        <mxCell id="rel12" style="edgeStyle=none;endArrow=open;" parent="1" source="comentario" target="comentario" edge="1" />
        <mxCell id="rel13" style="edgeStyle=none;endArrow=open;" parent="1" source="articulo" target="adjunto" edge="1" />
        <mxCell id="rel14" style="edgeStyle=none;endArrow=open;" parent="1" source="articulo" target="version_articulo" edge="1" />
        <mxCell id="rel15" style="edgeStyle=none;endArrow=open;" parent="1" source="usuario" target="version_articulo" edge="1" />
        <mxCell id="rel16" style="edgeStyle=none;endArrow=open;" parent="1" source="categoria" target="categoria" edge="1" />
        <mxCell id="rel17" style="edgeStyle=none;endArrow=none;dashed=1;" parent="1" source="articulo" target="articulo_relacionado" edge="1">
          <mxGeometry relative="1" as="geometry">
            <mxPoint x="100" y="1200" as="sourcePoint" />
            <mxPoint x="200" y="1200" as="targetPoint" />
          </mxGeometry>
        </mxCell>
        <mxCell id="rel18" style="edgeStyle=none;endArrow=none;dashed=1;" parent="1" source="articulo" target="articulo_relacionado" edge="1">
          <mxGeometry relative="1" as="geometry">
            <mxPoint x="300" y="1200" as="sourcePoint" />
            <mxPoint x="200" y="1200" as="targetPoint" />
          </mxGeometry>
        </mxCell>
        <mxCell id="rel19" style="edgeStyle=none;endArrow=open;" parent="1" source="articulo" target="metadato_seo" edge="1" />
        <mxCell id="rel20" style="edgeStyle=none;endArrow=none;dashed=1;" parent="1" source="usuario" target="voto_articulo" edge="1" />
        <mxCell id="rel21" style="edgeStyle=none;endArrow=none;dashed=1;" parent="1" source="articulo" target="voto_articulo" edge="1" />
        <mxCell id="rel22" style="edgeStyle=none;endArrow=none;dashed=1;" parent="1" source="usuario" target="historial_lectura" edge="1" />
        <mxCell id="rel23" style="edgeStyle=none;endArrow=none;dashed=1;" parent="1" source="articulo" target="historial_lectura" edge="1" />
      </root>
    </mxGraphModel>
  </diagram>
</mxfile>
